# xmcd
#
# Track frame offsets:
#	150
#	15605
#	35965
#	53577
#	68994
#	83128
#	97415
#	113916
#	129042
#	146801
#	163308
#	175659
#	190971
#
# Disc length: 2765
#
# Revision: 2
# Processed by: cddbd v1.5.1PL0 Copyright (c) Steve Scherf et al.
# Submitted via: VisiTrax 2.9.9.202 - For more info visit www.synapsa.com
# Normalized: r1:DSETVAR1
#
DISCID=b90acb0d
DTITLE=Various Artist - Today's Country Hits - Disc 2
DYEAR=2002
DGENRE=Country
TTITLE0=Alabama - God Must Have Spent A Little More Time With You
TTITLE1=Brooks And Dunn - Only In America
TTITLE2=Clint Black - Nothing But The Tail Lights
TTITLE3=Collin Raye - Little Red Rodeo
TTITLE4=Faith Hill - The Way You Love Me
TTITLE5=Garth Brooks and Steve Warner - Katie Wants A Fast One
TTITLE6=Jessica Andrew - Who Am I
TTITLE7=Montgomery Gentry - Lonely And Gone
TTITLE8=Phil Vassar - Just Another Day In Paradise
TTITLE9=Shania Twain - That Don't Impress Me Much
TTITLE10=Toby Keith - Just Talking About Tonight
TTITLE11=Trick Pony - Just What I Do
TTITLE12=Ty Herndon - What Mattered Most
EXTD=
EXTT0=
EXTT1=
EXTT2=
EXTT3=
EXTT4=
EXTT5=
EXTT6=
EXTT7=
EXTT8=
EXTT9=
EXTT10=
EXTT11=
EXTT12=
PLAYORDER=
